<mxfile host="app.diagrams.net" agent="Mozilla/5.0 (Macintosh; Intel Mac OS X 10_15_7) AppleWebKit/537.36 (KHTML, like Gecko) Chrome/132.0.0.0 Safari/537.36" version="26.0.11">
  <diagram name="第 1 页" id="hE-EVMoh24ZVPqNSy51q">
    <mxGraphModel dx="681" dy="450" grid="1" gridSize="10" guides="1" tooltips="1" connect="1" arrows="1" fold="1" page="1" pageScale="1" pageWidth="827" pageHeight="1169" math="0" shadow="0">
      <root>
        <mxCell id="0" />
        <mxCell id="1" parent="0" />
        <mxCell id="26YwbLvZCYAhRD0Tl79S-1" value="Actor" style="shape=umlActor;verticalLabelPosition=bottom;verticalAlign=top;html=1;" parent="1" vertex="1">
          <mxGeometry x="180" y="310" width="30" height="60" as="geometry" />
        </mxCell>
        <mxCell id="26YwbLvZCYAhRD0Tl79S-3" value="" style="html=1;whiteSpace=wrap;direction=south;" parent="1" vertex="1">
          <mxGeometry x="250" y="160" width="350" height="460" as="geometry" />
        </mxCell>
        <mxCell id="f9GubYoWh3bI8AQ0VfsK-1" value="Sign up" style="ellipse;whiteSpace=wrap;html=1;" vertex="1" parent="1">
          <mxGeometry x="300" y="210" width="80" height="30" as="geometry" />
        </mxCell>
        <mxCell id="f9GubYoWh3bI8AQ0VfsK-14" style="edgeStyle=orthogonalEdgeStyle;rounded=0;orthogonalLoop=1;jettySize=auto;html=1;entryX=0;entryY=0.5;entryDx=0;entryDy=0;" edge="1" parent="1" source="f9GubYoWh3bI8AQ0VfsK-2" target="f9GubYoWh3bI8AQ0VfsK-12">
          <mxGeometry relative="1" as="geometry" />
        </mxCell>
        <mxCell id="f9GubYoWh3bI8AQ0VfsK-2" value="Login in" style="ellipse;whiteSpace=wrap;html=1;" vertex="1" parent="1">
          <mxGeometry x="300" y="260" width="100" height="40" as="geometry" />
        </mxCell>
        <mxCell id="f9GubYoWh3bI8AQ0VfsK-18" style="edgeStyle=orthogonalEdgeStyle;rounded=0;orthogonalLoop=1;jettySize=auto;html=1;entryX=0;entryY=0.5;entryDx=0;entryDy=0;" edge="1" parent="1" source="f9GubYoWh3bI8AQ0VfsK-3" target="f9GubYoWh3bI8AQ0VfsK-17">
          <mxGeometry relative="1" as="geometry" />
        </mxCell>
        <mxCell id="f9GubYoWh3bI8AQ0VfsK-20" style="edgeStyle=orthogonalEdgeStyle;rounded=0;orthogonalLoop=1;jettySize=auto;html=1;entryX=0;entryY=0.5;entryDx=0;entryDy=0;" edge="1" parent="1" source="f9GubYoWh3bI8AQ0VfsK-3" target="f9GubYoWh3bI8AQ0VfsK-19">
          <mxGeometry relative="1" as="geometry" />
        </mxCell>
        <mxCell id="f9GubYoWh3bI8AQ0VfsK-3" value="目标检测" style="ellipse;whiteSpace=wrap;html=1;" vertex="1" parent="1">
          <mxGeometry x="300" y="320" width="100" height="40" as="geometry" />
        </mxCell>
        <mxCell id="f9GubYoWh3bI8AQ0VfsK-4" value="任务管理" style="ellipse;whiteSpace=wrap;html=1;" vertex="1" parent="1">
          <mxGeometry x="300" y="380" width="100" height="40" as="geometry" />
        </mxCell>
        <mxCell id="f9GubYoWh3bI8AQ0VfsK-5" value="云存储" style="ellipse;whiteSpace=wrap;html=1;" vertex="1" parent="1">
          <mxGeometry x="300" y="440" width="100" height="40" as="geometry" />
        </mxCell>
        <mxCell id="f9GubYoWh3bI8AQ0VfsK-6" value="用户管理" style="ellipse;whiteSpace=wrap;html=1;" vertex="1" parent="1">
          <mxGeometry x="300" y="500" width="100" height="40" as="geometry" />
        </mxCell>
        <mxCell id="f9GubYoWh3bI8AQ0VfsK-7" value="系统运维" style="ellipse;whiteSpace=wrap;html=1;" vertex="1" parent="1">
          <mxGeometry x="300" y="560" width="100" height="40" as="geometry" />
        </mxCell>
        <mxCell id="f9GubYoWh3bI8AQ0VfsK-8" value="" style="endArrow=block;endSize=16;endFill=0;html=1;rounded=0;entryX=1;entryY=0.5;entryDx=0;entryDy=0;exitX=0;exitY=1;exitDx=0;exitDy=0;" edge="1" parent="1" source="f9GubYoWh3bI8AQ0VfsK-9" target="f9GubYoWh3bI8AQ0VfsK-1">
          <mxGeometry width="160" relative="1" as="geometry">
            <mxPoint x="130" y="290" as="sourcePoint" />
            <mxPoint x="400" y="380" as="targetPoint" />
            <Array as="points">
              <mxPoint x="460" y="220" />
            </Array>
          </mxGeometry>
        </mxCell>
        <mxCell id="f9GubYoWh3bI8AQ0VfsK-9" value="PhoneNum" style="ellipse;whiteSpace=wrap;html=1;" vertex="1" parent="1">
          <mxGeometry x="457.5" y="180" width="75" height="30" as="geometry" />
        </mxCell>
        <mxCell id="f9GubYoWh3bI8AQ0VfsK-10" value="微信" style="ellipse;whiteSpace=wrap;html=1;" vertex="1" parent="1">
          <mxGeometry x="460" y="220" width="70" height="30" as="geometry" />
        </mxCell>
        <mxCell id="f9GubYoWh3bI8AQ0VfsK-11" value="" style="endArrow=block;endSize=16;endFill=0;html=1;rounded=0;entryX=1;entryY=0.5;entryDx=0;entryDy=0;exitX=0;exitY=0;exitDx=0;exitDy=0;" edge="1" parent="1" source="f9GubYoWh3bI8AQ0VfsK-10" target="f9GubYoWh3bI8AQ0VfsK-1">
          <mxGeometry width="160" relative="1" as="geometry">
            <mxPoint x="95" y="360" as="sourcePoint" />
            <mxPoint x="410" y="230" as="targetPoint" />
            <Array as="points">
              <mxPoint x="460" y="220" />
            </Array>
          </mxGeometry>
        </mxCell>
        <mxCell id="f9GubYoWh3bI8AQ0VfsK-12" value="Verify Account" style="ellipse;whiteSpace=wrap;html=1;" vertex="1" parent="1">
          <mxGeometry x="440" y="260" width="90" height="30" as="geometry" />
        </mxCell>
        <mxCell id="f9GubYoWh3bI8AQ0VfsK-16" style="edgeStyle=orthogonalEdgeStyle;rounded=0;orthogonalLoop=1;jettySize=auto;html=1;entryX=1;entryY=0.5;entryDx=0;entryDy=0;" edge="1" parent="1" source="f9GubYoWh3bI8AQ0VfsK-13" target="f9GubYoWh3bI8AQ0VfsK-2">
          <mxGeometry relative="1" as="geometry">
            <Array as="points">
              <mxPoint x="435" y="320" />
              <mxPoint x="435" y="300" />
              <mxPoint x="400" y="300" />
            </Array>
          </mxGeometry>
        </mxCell>
        <mxCell id="f9GubYoWh3bI8AQ0VfsK-13" value="Display login error" style="ellipse;whiteSpace=wrap;html=1;" vertex="1" parent="1">
          <mxGeometry x="470" y="300" width="90" height="40" as="geometry" />
        </mxCell>
        <mxCell id="f9GubYoWh3bI8AQ0VfsK-17" value="上传视频" style="ellipse;whiteSpace=wrap;html=1;" vertex="1" parent="1">
          <mxGeometry x="457.5" y="350" width="90" height="30" as="geometry" />
        </mxCell>
        <mxCell id="f9GubYoWh3bI8AQ0VfsK-19" value="视频检测" style="ellipse;whiteSpace=wrap;html=1;" vertex="1" parent="1">
          <mxGeometry x="460" y="385" width="90" height="30" as="geometry" />
        </mxCell>
        <mxCell id="f9GubYoWh3bI8AQ0VfsK-21" value="查看历史任务" style="ellipse;whiteSpace=wrap;html=1;" vertex="1" parent="1">
          <mxGeometry x="450" y="420" width="90" height="30" as="geometry" />
        </mxCell>
        <mxCell id="f9GubYoWh3bI8AQ0VfsK-23" value="编辑任务" style="ellipse;whiteSpace=wrap;html=1;" vertex="1" parent="1">
          <mxGeometry x="520" y="410" width="90" height="30" as="geometry" />
        </mxCell>
        <mxCell id="f9GubYoWh3bI8AQ0VfsK-24" value="重新下载任务" style="ellipse;whiteSpace=wrap;html=1;" vertex="1" parent="1">
          <mxGeometry x="570" y="385" width="90" height="30" as="geometry" />
        </mxCell>
        <mxCell id="f9GubYoWh3bI8AQ0VfsK-25" value="断点续传" style="ellipse;whiteSpace=wrap;html=1;" vertex="1" parent="1">
          <mxGeometry x="442.5" y="460" width="90" height="30" as="geometry" />
        </mxCell>
        <mxCell id="f9GubYoWh3bI8AQ0VfsK-26" value="断点下载" style="ellipse;whiteSpace=wrap;html=1;" vertex="1" parent="1">
          <mxGeometry x="520" y="460" width="90" height="30" as="geometry" />
        </mxCell>
        <mxCell id="f9GubYoWh3bI8AQ0VfsK-28" value="断点续传" style="ellipse;whiteSpace=wrap;html=1;" vertex="1" parent="1">
          <mxGeometry x="452.5" y="470" width="90" height="30" as="geometry" />
        </mxCell>
        <mxCell id="f9GubYoWh3bI8AQ0VfsK-29" value="离线视频" style="ellipse;whiteSpace=wrap;html=1;" vertex="1" parent="1">
          <mxGeometry x="547.5" y="330" width="70" height="30" as="geometry" />
        </mxCell>
        <mxCell id="f9GubYoWh3bI8AQ0VfsK-30" value="实时上传" style="ellipse;whiteSpace=wrap;html=1;" vertex="1" parent="1">
          <mxGeometry x="610" y="340" width="70" height="30" as="geometry" />
        </mxCell>
        <mxCell id="f9GubYoWh3bI8AQ0VfsK-31" value="断点续传" style="ellipse;whiteSpace=wrap;html=1;" vertex="1" parent="1">
          <mxGeometry x="430" y="490" width="90" height="30" as="geometry" />
        </mxCell>
      </root>
    </mxGraphModel>
  </diagram>
</mxfile>
